HIERARCHY
ROOT Hips
{
    OFFSET 0.0 0.0 0.0
    CHANNELS 6 Xposition Yposition Zposition Zrotation Xrotation Yrotation
    JOINT LeftUpLeg
    {
        OFFSET 12.350025412835652 0.0 0.0
        CHANNELS 3 Zrotation Xrotation Yrotation
        JOINT LeftLeg
        {
            OFFSET 0.0 0.0 -64.0458805527028
            CHANNELS 3 Zrotation Xrotation Yrotation
            JOINT LeftFoot
            {
                OFFSET 0.0 0.0 -49.41840915293295
                CHANNELS 3 Zrotation Xrotation Yrotation
                JOINT LeftToeBase
                {
                    OFFSET 0.0 -12.54759193183636 0.0
                    CHANNELS 3 Zrotation Xrotation Yrotation
                    End Site
                    {
                        OFFSET 0 0 0
                    }
                }
            }
        }
    }
    JOINT RightUpLeg
    {
        OFFSET -12.350025412835652 0.0 0.0
        CHANNELS 3 Zrotation Xrotation Yrotation
        JOINT RightLeg
        {
            OFFSET 0.0 0.0 -64.0458805527028
            CHANNELS 3 Zrotation Xrotation Yrotation
            JOINT RightFoot
            {
                OFFSET 0.0 0.0 -49.41840915293295
                CHANNELS 3 Zrotation Xrotation Yrotation
                JOINT RightToeBase
                {
                    OFFSET 0.0 -12.54759193183636 0.0
                    CHANNELS 3 Zrotation Xrotation Yrotation
                    End Site
                    {
                        OFFSET 0 0 0
                    }
                }
            }
        }
    }
    JOINT Spine
    {
        OFFSET 0.0 0.0 12.083315412931647
        CHANNELS 3 Zrotation Xrotation Yrotation
        JOINT Spine1
        {
            OFFSET 0.0 0.0 11.569376591592478
            CHANNELS 3 Zrotation Xrotation Yrotation
            JOINT Spine2
            {
                OFFSET 0.0 0.0 11.569376591592478
                CHANNELS 3 Zrotation Xrotation Yrotation
                JOINT Spine3
                {
                    OFFSET 0.0 0.0 11.569376591592476
                    CHANNELS 3 Zrotation Xrotation Yrotation
                    JOINT Spine4
                    {
                        OFFSET 0.0 0.0 11.56937659159248
                        CHANNELS 3 Zrotation Xrotation Yrotation
                        JOINT RightShoulder
                        {
                            OFFSET -24.32033206898537 0.0 0.0
                            CHANNELS 3 Zrotation Xrotation Yrotation
                            JOINT RightArm
                            {
                                OFFSET -34.87857865421043 0.0 0.0
                                CHANNELS 3 Zrotation Xrotation Yrotation
                                JOINT RightForeArm
                                {
                                    OFFSET -33.053883661346404 0.0 0.0
                                    CHANNELS 3 Zrotation Xrotation Yrotation
                                    JOINT RightHand
                                    {
                                        OFFSET -10.890244707958459 0.0 0.0
                                        CHANNELS 3 Zrotation Xrotation Yrotation
                                        End Site
                                        {
                                            OFFSET 0 0 0
                                        }
                                    }
                                }
                            }
                        }
                        JOINT LeftShoulder
                        {
                            OFFSET 24.32033206898537 0.0 0.0
                            CHANNELS 3 Zrotation Xrotation Yrotation
                            JOINT LeftArm
                            {
                                OFFSET 34.87857865421043 0.0 0.0
                                CHANNELS 3 Zrotation Xrotation Yrotation
                                JOINT LeftForeArm
                                {
                                    OFFSET 33.053883661346404 0.0 0.0
                                    CHANNELS 3 Zrotation Xrotation Yrotation
                                    JOINT LeftHand
                                    {
                                        OFFSET 10.890244707958459 0.0 0.0
                                        CHANNELS 3 Zrotation Xrotation Yrotation
                                        End Site
                                        {
                                            OFFSET 0 0 0
                                        }
                                    }
                                }
                            }
                        }
                        JOINT Neck
                        {
                            OFFSET 0.0 0.0 11.569376592147794
                            CHANNELS 3 Zrotation Xrotation Yrotation
                            JOINT Head
                            {
                                OFFSET 0.0 0.0 26.07174865012251
                                CHANNELS 3 Zrotation Xrotation Yrotation
                                End Site
                                {
                                    OFFSET 0 0 0
                                }
                            }
                        }
                    }
                }
            }
        }
    }
}
MOTION
Frames: 8
Frame Time: 0.03333333333333333
37.857506489753725 -7.510717150568962 337.16437568664554 -109.35006366860621 -78.18115412464648 -110.52316443631793 -15.511938411445493 15.847221409304122 12.980051604999431 11.405097367005906 -18.579577210291323 -15.425804874018652 -48.93580859341773 6.3611093629270335e-15 22.71330790179412 6.3611093629270335e-15 0.0 0.0 -14.496607834369096 -14.907236293080208 2.212642574346419 83.39622573281153 40.58346635053327 -65.95697897214787 -162.42953806214618 7.951386703658792e-15 -31.377372533134515 0.0 0.0 0.0 -0.41105511099815 -4.307681156900311 1.3978575471394805 7.951386703658792e-16 0.0 0.0 7.951386703658792e-16 0.0 0.0 7.951386703658792e-16 0.0 0.0 7.951386703658792e-16 0.0 0.0 132.55676802575266 52.171041114264426 146.09028166888746 13.13587983386015 -7.865493649694723e-15 -1.270105007276454e-14 180.0 0.5482703383182289 180.0 0.0 0.0 0.0 168.10306925175078 14.166423449273408 -176.6831399484774 -137.87533651944463 -1.1430384723384074e-15 -2.9680618478282707e-15 -179.99999999999997 -74.17252433363598 -180.0 0.0 0.0 -1.5902773407317584e-15 -6.32372525037579 1.8569598624891445e-14 2.61850513242672e-15 1.5902773407317588e-15 2.2069531490250793e-32 1.5902773407317588e-15
37.108883965015416 -7.691239124536515 338.06068210601813 -104.00778117600464 -79.14318068146866 -105.55282357000956 -15.561373157668838 15.628307575152748 12.694506565480824 12.66176948492491 -20.17296452993324 -14.653381542866729 -58.81915663556328 -1.5902773407317584e-15 27.152050093194543 0.0 0.0 0.0 -17.71002864145253 -17.986470611273486 0.7995119657037081 88.83425340737028 41.34142561087162 -70.79139771437578 -159.9511971845798 3.1805546814635168e-15 -33.326384060223596 0.0 0.0 0.0 -0.2547965783048526 -2.8828766929213656 1.0641258200106256 0.0 0.0 0.0 0.0 0.0 0.0 0.0 0.0 0.0 0.0 0.0 0.0 116.88178606165344 31.808060497641073 160.24426375825144 12.122750187428219 8.480780060155027e-15 -1.049585990013719e-14 -180.0 32.112550725874044 -180.0 0.0 0.0 0.0 170.41054075495592 11.082012168752513 -176.7637799741709 -137.93300431090552 0.0 -0.0 -179.99999999999986 -88.77891778332653 -179.99999999999986 0.0 0.0 -9.93923337957349e-16 -5.857396095328317 4.4668132464919055e-15 2.2852211298711237e-16 0.0 0.0 0.0
35.936156487464906 -7.787750038504601 339.7390966415406 -95.13127822132516 -81.40563053395807 -96.95207182205193 -15.651783160908112 15.526137505877877 11.715894346774604 14.749725575471793 -22.411029324514246 -12.903792817530991 -70.50110234806499 -6.3611093629270335e-15 34.35772239547483 0.0 0.0 0.0 -21.107245870926242 -21.180445432438372 -0.7947456860052435 92.89164379940236 41.90186618717633 -75.57440565572196 -157.1642794367925 -9.54166404439055e-15 -37.42288324732598 0.0 0.0 0.0 -0.18879946361322503 -2.3716997693057635 0.7832107922447266 7.951386703658792e-16 0.0 0.0 7.951386703658792e-16 0.0 0.0 7.951386703658792e-16 0.0 0.0 7.951386703658792e-16 0.0 0.0 107.47015329686715 -0.8048871445935025 167.13066552694468 16.066120373751204 -4.038275671727033e-15 -5.85422667890773e-15 -180.0 73.9294643567054 179.99999999999997 0.0 0.0 0.0 172.27011042653606 6.936088855535847 -176.9734100026503 -137.63260754043287 -1.071321310104784e-14 7.562925521369909e-15 -2.570134446769465e-14 -75.69331486410051 -1.493483163906694e-14 2.3138524421809815e-31 -3.1805546814635164e-15 8.336531997117263e-15 -4.551724714911994 -5.728632567234286e-15 -1.0234347937911587e-15 7.951386703658792e-16 0.0 0.0
34.33427367210388 -7.937651234865189 342.3387817382812 -66.85614262350701 -82.71812593016566 -69.11997332178404 -15.885037339500395 14.361991613422603 10.162580897234578 17.849376218050345 -25.098385965428516 -10.300145540904085 -80.80424973652086 3.1805546814635168e-15 43.023829032443196 0.0 0.0 0.0 -24.836309292589625 -25.336511013046643 -3.2061462092605937 96.2961109203861 42.57715215300477 -79.2965221272939 -154.2062366048844 1.2722218725854067e-14 -41.07823280820716 0.0 0.0 0.0 -0.20267928279210692 -3.111011961389708 0.8658334086641529 0.0 0.0 0.0 0.0 0.0 0.0 0.0 0.0 0.0 0.0 0.0 0.0 106.93681823204763 -17.89278431682863 170.75692870927415 24.109943944226956 6.2208320887932686e-15 -1.3285181406958446e-15 -1.237654263021418e-14 72.34170274231276 1.6928464542988368e-14 0.0 0.0 0.0 176.35364603658996 6.123337750286907 -177.82769421138875 -136.31203085235376 -1.534630920791906e-14 1.3004918952693186e-14 -7.005047189169324e-15 -67.87052557261082 -4.713456957501737e-15 -1.5902773407317584e-15 -1.6552148617688095e-32 1.1927080055488188e-15 -3.4764826705198537 9.489034836585555e-15 1.878976483760793e-15 7.951386703658792e-16 0.0 0.0
32.105809772014624 -8.229858872294425 346.5718923568726 -27.9253575999953 -81.76862736221611 -29.832593915721947 -17.048552963835835 13.802119498292956 7.248547399800356 23.149740664600852 -28.484212762128884 -5.894797018369152 -90.2677451640416 -9.54166404439055e-15 51.93824578047753 0.0 0.0 0.0 -27.188967710053905 -28.351112911886567 -5.407043197834832 95.87140293023417 43.06094368920204 -81.27042772285148 -151.3341685855752 -6.3611093629270335e-15 -44.43486299534829 0.0 0.0 0.0 -0.3000164402962714 -5.406135580306181 0.7860916281855649 -2.2026426936558897e-32 6.348685321202567e-15 3.975693351829396e-16 -2.2026426936558897e-32 6.348685321202567e-15 3.975693351829396e-16 -2.2026426936558897e-32 6.348685321202567e-15 3.975693351829396e-16 -2.2026426936558897e-32 6.348685321202567e-15 3.975693351829396e-16 108.40555399580752 -26.756640764514792 174.56692928358132 34.33901756849247 6.7944094857771755e-15 1.1216362027405875e-14 -1.998281492641575e-15 40.9476644234214 -1.2833955558045706e-14 1.5902773407317584e-15 0.0 0.0 179.40921308522297 4.761388516898592 -178.20770539254107 -136.35891913741298 -1.6909004470053035e-14 -8.004559341703668e-15 -3.4679967568713494e-15 -63.1863277359426 3.4679967568713494e-15 1.5902773407317584e-15 -8.276074308844047e-33 -5.963540027744094e-16 -1.4351805804613889 1.2457822140576997e-14 1.3488353801402515e-15 -3.975693351829397e-16 0.0 0.0
29.826654195785522 -8.550537514686583 351.4240556716919 3.8055849131118693 -77.93154038426772 2.2467813319841126 -18.599797109647373 12.845276007543621 3.6384216527084177 28.949062498776183 -30.596033980687046 -0.473269095903226 -99.1934966631545 -6.3611093629270335e-15 59.86969145982512 0.0 0.0 0.0 -30.53539529321542 -32.76294128708524 -7.001178621680356 95.58421755711169 42.30999600366703 -85.3589538975665 -147.4392405667861 -1.5902773407317584e-15 -36.01528070619672 0.0 0.0 0.0 -0.33712314092610446 -8.414649324467376 1.027487443246274 0.0 0.0 0.0 0.0 0.0 0.0 0.0 0.0 0.0 0.0 0.0 0.0 110.1722170281488 -28.43465707061402 178.44699302617252 45.818617910496535 8.335570887288672e-15 3.3831468542204176e-15 0.0 22.966854068497938 0.0 7.951386703658792e-16 -4.4139062980501586e-32 -6.3611093629270335e-15 179.7371382375351 4.156641292448574 -178.11469386430676 -135.14844420832165 2.3368521714467823e-14 -1.007420723881593e-14 5.004847771413959e-16 -66.1836479917685 2.2243264630473364e-15 1.590277340731758e-15 -3.180554681463516e-15 -1.987846675914697e-16 -1.3501598079186277 9.745508489365548e-15 -3.426837804354565e-17 9.93923337957349e-17 1.2931366107568824e-34 1.4908850069360235e-16
27.41720863580704 -8.896591982245447 357.4980188369751 15.080033154126442 -72.84443420249768 14.548876786193771 -19.438267439960594 11.966541684114887 -0.3978462586591893 32.93243179699606 -30.28508824155735 2.9742992335110428 -101.96735880083553 -6.3611093629270335e-15 60.697137699923616 0.0 0.0 0.0 -32.660936039964405 -35.34275868924803 -8.391011267828949 92.62240536419436 41.83480705412142 -86.19677407967916 -144.05864341637923 3.1805546814635168e-15 -26.244362178171126 0.0 0.0 0.0 -0.38833477716260856 -12.385252781837066 1.2299093224159097 0.0 0.0 0.0 0.0 0.0 0.0 0.0 0.0 0.0 0.0 0.0 0.0 112.06746583451401 -28.05860490507675 -179.59456108572473 55.546375100439874 -8.442456056870926e-15 4.446154345478669e-15 -1.2216597822069994e-14 13.909848602355392 -4.918008539016666e-15 0.0 0.0 0.0 179.8596698891715 2.3349028725303818 -177.45522662330077 -137.44319164607143 -1.1542233997591393e-15 -2.963730153915492e-15 1.341509710109673e-15 -68.80710886591706 4.7735243579246146e-15 -7.951386703658792e-16 -4.4828735839571924e-32 6.4605016967227685e-15 0.12352862522686979 8.422638243008236e-15 -8.042186608663483e-16 -4.310455369189608e-35 1.2424041724466861e-17 3.9756933518293955e-16
25.16592757701874 -9.09321691095829 364.16880798339844 21.773265796775235 -66.97012036517808 21.94209841598747 -20.083429243852766 9.913126232611136 -4.355716378271618 35.15296463299025 -28.130208403347524 4.777784792132356 -103.38616048975274 -3.1805546814635168e-15 59.35624556465823 0.0 0.0 0.0 -31.71851981455847 -37.38473405896797 -7.233384442512615 85.82429374119668 40.720421119564385 -85.14950663789182 -133.57509202157698 3.1805546814635168e-15 -23.59988598811295 0.0 0.0 0.0 -0.061251870592385 -16.00234526898175 1.879485129058406 -7.951386703658792e-16 0.0 0.0 -7.951386703658792e-16 0.0 0.0 -7.951386703658792e-16 0.0 0.0 -7.951386703658792e-16 0.0 0.0 112.5377167787426 -25.95559972415115 -178.08307886931414 63.533509846744735 1.1461192605583667e-14 3.8487546147774654e-16 -3.3215312669809283e-15 19.252668774784294 5.633654061567523e-16 3.1805546814635168e-15 0.0 0.0 178.50637382989026 2.2672212525469693 -177.43439891550864 -138.33771956770218 5.655264559104474e-16 1.4863249470120055e-15 -1.3512776764910638e-14 -76.33357820643732 -1.0115154794879263e-14 0.0 0.0 9.93923337957349e-17 -1.4089811131389556 1.59854815467817e-14 -2.586633462898026e-15 -7.951386703658794e-16 0.0 0.0
